<svg width="122" height="108" viewBox="0 0 122 108" fill="none" xmlns="http://www.w3.org/2000/svg">
<path d="M18.1985 101.386C17.835 101.066 17.4714 100.824 17.0859 100.681C16.7003 100.538 16.3037 100.46 15.8741 100.46C14.9928 100.46 14.2768 100.725 13.759 101.254C13.2302 101.782 12.9658 102.498 12.9658 103.391C12.9658 104.283 13.2082 104.955 13.7039 105.473C14.1996 105.99 14.8606 106.244 15.7089 106.244C16.1936 106.244 16.6342 106.167 17.0528 106.002C17.4604 105.836 17.846 105.594 18.1985 105.274V107.103C17.8129 107.323 17.4164 107.489 16.9977 107.599C16.5791 107.709 16.1495 107.764 15.6868 107.764C14.3649 107.764 13.2743 107.356 12.4261 106.53C11.5778 105.704 11.1482 104.658 11.1482 103.391C11.1482 102.124 11.5778 101.077 12.4261 100.262C13.2743 99.4359 14.3759 99.0283 15.7199 99.0283C16.1715 99.0283 16.6012 99.0724 17.0308 99.1715C17.4494 99.2707 17.868 99.4139 18.2756 99.6122L18.2095 101.397L18.1985 101.386Z" fill="#5B5462"/>
<path d="M30.3274 107.533V99.2156H35.2295V100.714H32.112V102.421H35.2295V103.93H32.112V106.013H35.2295V107.522H30.3274V107.533Z" fill="#5B5462"/>
<path d="M47.4463 107.533V99.2156H49.297L52.9764 104.052C53.0865 104.184 53.1967 104.382 53.3289 104.625C53.4611 104.878 53.5823 105.164 53.7255 105.506C53.6814 105.263 53.6484 105.01 53.6373 104.768C53.6153 104.525 53.6043 104.217 53.6043 103.853V99.2046H55.3008V107.522H53.5602L49.7707 102.587C49.6605 102.454 49.5504 102.256 49.4292 102.014C49.308 101.771 49.1758 101.474 49.0326 101.121C49.0767 101.364 49.1097 101.606 49.1207 101.848C49.1318 102.091 49.1538 102.399 49.1538 102.774V107.522H47.4573L47.4463 107.533Z" fill="#5B5462"/>
<path d="M70.7342 100.725V107.533H68.9496V100.725H66.9116V99.2156H72.7612V100.725H70.7232H70.7342Z" fill="#5B5462"/>
<path d="M84.4053 107.533V99.2156H89.3074V100.714H86.1899V102.421H89.3074V103.93H86.1899V106.013H89.3074V107.522H84.4053V107.533Z" fill="#5B5462"/>
<path d="M107.528 107.533H105.479L103.287 103.644V107.533H101.513V99.2156H104.058C105.071 99.2156 105.832 99.4139 106.327 99.7994C106.823 100.185 107.087 100.78 107.087 101.573C107.087 102.146 106.911 102.631 106.57 103.038C106.228 103.446 105.776 103.677 105.237 103.743L107.528 107.533ZM103.287 102.763H103.551C104.267 102.763 104.741 102.686 104.972 102.531C105.204 102.377 105.314 102.102 105.314 101.705C105.314 101.309 105.193 101 104.939 100.835C104.697 100.659 104.223 100.582 103.54 100.582H103.276V102.774L103.287 102.763Z" fill="#5B5462"/>
<path d="M0 87.6928V71.2348C0 68.9654 1.83968 67.1147 4.12002 67.1147H7.54602C9.93651 67.1147 11.9855 67.2469 13.682 67.5113C15.3785 67.7757 16.7555 68.1833 17.813 68.7451C20.0493 69.9238 21.7788 71.4881 22.9685 73.438C24.1583 75.3878 24.7642 77.6021 24.7642 80.0917C24.7642 82.5813 24.1693 84.7735 22.9796 86.7124C21.7898 88.6512 20.0603 90.2155 17.813 91.4052C16.7114 91.967 15.3234 92.3857 13.6379 92.639C11.9525 92.9034 9.69415 93.0246 6.86302 93.0246H5.3428C2.40151 93.0246 0.01101 90.6341 0.01101 87.6928H0ZM9.2425 83.5618C9.2425 84.443 10.0357 85.115 10.9169 85.0049C12.1838 84.8286 13.1532 84.4651 13.8472 83.8812C14.8166 83.077 15.3013 81.8102 15.3013 80.0807C15.3013 78.3511 14.8387 77.1394 13.9133 76.3132C12.988 75.487 11.5669 75.0794 9.66111 75.0794H9.25352V83.5618H9.2425Z" fill="#4159A2"/>
<path d="M28.6639 89.1577V71.4548C28.6639 69.0643 30.6027 67.1255 32.9932 67.1255H40.374C43.7669 67.1255 46.3667 67.8746 48.1623 69.3728C49.958 70.871 50.8503 73.0301 50.8503 75.8502C50.8503 77.6899 50.3986 79.2101 49.4953 80.3999C48.9665 81.1049 48.3166 81.6337 47.5675 81.9972C46.7523 82.3828 46.4218 83.3632 46.9175 84.1233L51.0375 90.4025C51.7756 91.5371 50.9714 93.0353 49.6164 93.0353H43.3483C42.7204 93.0353 42.1365 92.6828 41.8391 92.132L40.9908 90.5347C40.1646 88.9704 37.7852 89.5542 37.7852 91.3278C37.7852 92.2642 37.0251 93.0243 36.0887 93.0243H32.5305C30.3934 93.0243 28.6528 91.2948 28.6528 89.1467L28.6639 89.1577ZM37.7962 75.2443V77.4035C37.7962 78.2077 38.4461 78.8576 39.2503 78.8576C40.1316 78.8576 40.8146 78.6373 41.2993 78.2077C41.773 77.778 42.0154 77.1612 42.0154 76.357C42.0154 75.5528 41.773 74.8918 41.2993 74.4512C40.8256 74.0105 40.1426 73.7902 39.2503 73.7902C38.4461 73.7902 37.7962 74.4402 37.7962 75.2443Z" fill="#4159A2"/>
<path d="M54.7939 91.3281V68.5689C54.7939 67.7647 55.4439 67.1147 56.2481 67.1147H62.8137C63.6178 67.1147 64.2678 67.7647 64.2678 68.5689V91.3281C64.2678 92.2645 63.5077 93.0246 62.5713 93.0246H56.5014C55.5651 93.0246 54.805 92.2645 54.805 91.3281H54.7939Z" fill="#4159A2"/>
<path d="M75.0636 91.934L66.3388 69.0866C65.9753 68.1392 66.6803 67.1147 67.6938 67.1147H74.5899C75.2398 67.1147 75.8017 67.5444 75.9779 68.1613L78.4125 76.5004C78.809 77.8664 79.1065 79.0231 79.3048 79.9705C79.5031 80.9179 79.6242 81.7992 79.6903 82.6254H79.8666C79.9878 81.7551 80.153 80.8298 80.3733 79.8604C80.5936 78.8909 80.8691 77.8444 81.2106 76.7098L83.7993 68.1502C83.9866 67.5333 84.5484 67.1147 85.1874 67.1147H91.8962C92.9096 67.1147 93.6147 68.1282 93.2511 69.0866L84.5594 91.934C84.3061 92.595 83.6781 93.0356 82.9731 93.0356H76.6499C75.9449 93.0356 75.3169 92.595 75.0636 91.945V91.934Z" fill="#4159A2"/>
<path d="M121.32 80.1247C121.32 82.0194 120.99 83.793 120.307 85.4234C119.624 87.0538 118.654 88.5189 117.354 89.8078C116.054 91.0746 114.556 92.033 112.871 92.705C111.174 93.377 109.379 93.7185 107.462 93.7185C105.545 93.7185 103.716 93.388 102.031 92.705C100.346 92.033 98.8473 91.0526 97.5364 89.7637C96.2475 88.5079 95.2781 87.0758 94.6172 85.4454C93.9562 83.815 93.6257 82.0414 93.6257 80.1136C93.6257 78.1858 93.9562 76.4122 94.6172 74.7708C95.2781 73.1294 96.2475 71.6863 97.5364 70.4305C98.8363 69.1526 100.323 68.1832 102.009 67.5222C103.694 66.8613 105.512 66.5198 107.462 66.5198C109.412 66.5198 111.229 66.8503 112.915 67.5222C114.6 68.1942 116.099 69.1636 117.409 70.4305C118.687 71.6973 119.657 73.1404 120.318 74.7818C120.99 76.4232 121.32 78.1968 121.32 80.1136V80.1247ZM107.462 85.0048C108.773 85.0048 109.819 84.5641 110.624 83.6718C111.417 82.7795 111.813 81.6008 111.813 80.1247C111.813 78.6485 111.417 77.4477 110.624 76.5444C109.83 75.6411 108.773 75.1894 107.462 75.1894C106.151 75.1894 105.093 75.6411 104.289 76.5554C103.485 77.4588 103.089 78.6595 103.089 80.1357C103.089 81.6118 103.485 82.7905 104.289 83.6828C105.093 84.5752 106.151 85.0158 107.462 85.0158V85.0048Z" fill="#4159A2"/>
<path d="M32.3762 48.7292C29.534 51.7917 27.7935 55.8897 27.7935 60.3952C27.7935 60.8579 27.8265 61.3206 27.8596 61.7833H43.4473C44.2956 61.7833 44.9786 61.1003 44.9786 60.252V53.8076C44.9786 47.22 36.8487 43.8931 32.3762 48.7292Z" fill="#A2BFE4"/>
<path d="M70.7341 54.7214V60.2405C70.7341 61.0887 71.4171 61.7717 72.2654 61.7717H84.4822C86.4872 61.7717 87.9743 59.932 87.5888 57.9602C86.9608 54.7765 85.4516 51.9123 83.3365 49.632C78.864 44.7959 70.7341 48.1118 70.7341 54.7104V54.7214Z" fill="#A2BFE4"/>
<path d="M95.7849 11.748C95.7849 11.748 95.7849 11.748 95.7628 11.748C95.3001 11.4175 94.8375 11.0981 94.3638 10.7676C84.7247 4.31215 73.1358 0.555664 60.6766 0.555664C29.5892 0.555664 3.95473 23.9538 0.429586 54.0939C-0.0551219 58.1918 3.19463 61.7831 7.32566 61.7831C9.26449 61.7831 10.8618 60.2849 10.994 58.3571C11.1593 56.0107 11.4236 53.0143 11.7872 51.2297C15.6979 32.0176 30.6357 16.8154 49.7046 12.5302C50.2443 12.2878 50.8282 12.1556 51.4671 12.1556C51.5002 12.1556 51.5222 12.1556 51.5553 12.1556C54.5186 11.6048 57.559 11.3184 60.6766 11.3184C66.5151 11.3184 72.1223 12.3208 77.3219 14.1715C77.388 14.1936 77.4541 14.2046 77.5092 14.2266C77.8176 14.3258 78.104 14.4359 78.4125 14.5571C78.7099 14.6563 78.9963 14.7884 79.2938 14.8986C79.5912 15.0198 79.8776 15.141 80.1751 15.2621C80.4394 15.3723 80.7038 15.4935 80.9572 15.6147C81.0013 15.6367 81.0563 15.6477 81.1004 15.6697C81.3538 15.7799 81.5961 15.9011 81.8385 16.0112C82.0808 16.1214 82.3232 16.2426 82.5545 16.3638C82.5766 16.3638 82.5876 16.3858 82.6096 16.3968C83.2155 16.6942 83.8104 17.0027 84.4163 17.3221C84.4493 17.8289 84.5485 18.3246 84.6917 18.7983C84.7247 18.8864 84.7467 18.9636 84.7798 19.0517C84.8128 19.1288 84.8349 19.2059 84.8679 19.283C84.8679 19.305 84.8899 19.3271 84.901 19.3601C84.934 19.4262 84.956 19.4923 84.9891 19.5584C85.0882 19.7567 85.1764 19.955 85.2865 20.1423C85.3196 20.2084 85.3636 20.2635 85.3967 20.3295C85.4408 20.4177 85.4958 20.4948 85.5509 20.5719C85.8924 21.0786 86.289 21.5413 86.7407 21.9269C86.7847 21.9709 86.8398 22.015 86.8839 22.0481C86.972 22.1142 87.0491 22.1802 87.1372 22.2463C87.2033 22.2904 87.2804 22.3455 87.3465 22.4006C87.4897 22.4997 87.644 22.5989 87.7982 22.687C87.8423 22.72 87.8973 22.7421 87.9524 22.7751C88.1177 22.8743 88.2719 22.9514 88.4481 23.0175C88.5252 23.0505 88.6024 23.0836 88.6905 23.1166C88.7786 23.1497 88.8667 23.1827 88.9659 23.2158C89.1091 23.2598 89.2633 23.3149 89.4065 23.3479C89.4726 23.37 89.5387 23.381 89.6048 23.403C89.715 23.4361 89.8472 23.4471 89.9684 23.4802C90.0565 23.5022 90.1336 23.5132 90.2217 23.5132C90.2438 23.5132 90.2548 23.5132 90.2548 23.5132C90.3429 23.5132 90.42 23.5352 90.5082 23.5462C90.5412 23.5462 90.5632 23.5462 90.5963 23.5462C90.6954 23.5462 90.7835 23.5683 90.8937 23.5683C90.9929 23.5683 91.114 23.5683 91.2242 23.5683C91.3344 23.5683 91.4445 23.5683 91.5547 23.5683H91.5877C91.5877 23.5683 91.6758 23.5683 91.7199 23.5683C92.6783 23.5022 93.6147 23.8216 94.3638 24.4055C94.4629 24.4936 94.5731 24.5818 94.6722 24.6589C102.009 31.5109 107.286 40.5331 109.456 50.7229H100.004C98.2414 43.7608 94.7604 37.4926 90.0345 32.3922C78.9963 20.4728 58.9911 28.6687 58.9911 44.9064V50.7339H56.7438V43.948C56.7438 27.7103 36.7386 19.5143 25.7005 31.4338C18.7053 38.9798 14.431 49.0815 14.431 60.1858C14.431 61.056 15.1361 61.7611 16.0063 61.7611H19.2671C20.1374 61.7611 20.8424 61.056 20.8424 60.1858C20.8424 52.4525 23.8167 45.4132 28.6969 40.1585C36.3861 31.8524 50.3325 37.5587 50.3325 48.8722V60.2298C50.3325 61.0781 51.0155 61.7611 51.8637 61.7611H63.8602C64.7085 61.7611 65.3915 61.0781 65.3915 60.2298V49.8527C65.3915 38.5281 79.3378 32.8218 87.0271 41.1279C90.6624 45.0607 93.2401 54.5235 94.3087 59.1392C94.6612 60.6815 96.0382 61.7721 97.6245 61.7721H114.027C118.159 61.7721 121.375 58.1698 120.902 54.0718C118.864 36.6223 109.412 21.4422 95.7849 11.748Z" fill="#A2BFE4"/>
</svg>
